<?xml version="1.0" encoding="utf-8"?>
<!-- Generator: Adobe Illustrator 27.0.0, SVG Export Plug-In . SVG Version: 6.00 Build 0)  -->
<svg version="1.1" id="Layer_1" xmlns="http://www.w3.org/2000/svg" xmlns:xlink="http://www.w3.org/1999/xlink" x="0px" y="0px"
	 viewBox="0 0 100 125" style="enable-background:new 0 0 100 125;" xml:space="preserve">
<style type="text/css">
	.st0{fill-rule:evenodd;clip-rule:evenodd;fill:#231F20;}
	.st1{fill-rule:evenodd;clip-rule:evenodd;fill:#FFFFFF;}
</style>
<path class="st0" d="M76.6,55.5c0,3.5-2.8,6.2-6.2,6.2s-6.2-2.8-6.2-6.2c0-3.5,2.8-6.2,6.2-6.2S76.6,52,76.6,55.5z M73.4,55.5
	c0,1.7-1.4,3.1-3.1,3.1s-3.1-1.4-3.1-3.1c0-1.7,1.4-3.1,3.1-3.1S73.4,53.7,73.4,55.5z"/>
<path class="st0" d="M70.3,91.4c3.5,0,6.2-2.8,6.2-6.2c0-3.5-2.8-6.2-6.2-6.2s-6.2,2.8-6.2,6.2C64.1,88.6,66.9,91.4,70.3,91.4z
	 M70.3,88.3c1.7,0,3.1-1.4,3.1-3.1s-1.4-3.1-3.1-3.1s-3.1,1.4-3.1,3.1C67.2,86.9,68.6,88.3,70.3,88.3z"/>
<path class="st0" d="M61.7,70.3c0,3.5-2.8,6.2-6.2,6.2c-3.5,0-6.2-2.8-6.2-6.2s2.8-6.2,6.2-6.2C58.9,64.1,61.7,66.9,61.7,70.3z
	 M58.6,70.3c0,1.7-1.4,3.1-3.1,3.1c-1.7,0-3.1-1.4-3.1-3.1s1.4-3.1,3.1-3.1C57.2,67.2,58.6,68.6,58.6,70.3z"/>
<path class="st1" d="M70.3,76.6c3.5,0,6.2-2.8,6.2-6.2s-2.8-6.2-6.2-6.2s-6.2,2.8-6.2,6.2S66.9,76.6,70.3,76.6z M70.3,73.4
	c1.7,0,3.1-1.4,3.1-3.1s-1.4-3.1-3.1-3.1s-3.1,1.4-3.1,3.1S68.6,73.4,70.3,73.4z"/>
<path class="st0" d="M91.4,70.3c0,3.5-2.8,6.2-6.2,6.2c-3.5,0-6.2-2.8-6.2-6.2s2.8-6.2,6.2-6.2C88.6,64.1,91.4,66.9,91.4,70.3z
	 M88.3,70.3c0,1.7-1.4,3.1-3.1,3.1s-3.1-1.4-3.1-3.1s1.4-3.1,3.1-3.1C86.9,67.2,88.3,68.6,88.3,70.3z"/>
<path class="st0" d="M71.9,31.3c1.2-1.5,2-3.4,2-5.4c0-4.2-3.1-7.7-7.1-8.4c0-0.2,0-0.4,0-0.6c0-4.7-3.9-8.6-8.6-8.6
	c-0.8,0-1.5,0.1-2.2,0.3c-1.4-3.1-4.6-5.3-8.5-5.3c-2.6,0-4.9,1-6.6,2.6c-1.7-1.6-4-2.6-6.6-2.6c-3.8,0-7.1,2.2-8.5,5.3
	c-0.7-0.2-1.4-0.3-2.2-0.3c-4.8,0-8.6,3.8-8.6,8.6c0,0.1,0,0.3,0,0.4c0,0,0,0,0,0.1l0,0l0,0c-4.5,0.3-8.1,4-8.1,8.6
	c0,2.1,0.7,4,2,5.5c-3.2,0.3-5.8,2.9-5.8,6.2s2.5,6,5.7,6.2l4.1,46c0.4,4,3.7,7.1,7.8,7.1h76.1c0.9,0,1.6-0.7,1.6-1.6
	s-0.7-1.6-1.6-1.6h-14c8.4-4.5,14.1-13.3,14.1-23.4c0-14-10.8-25.4-24.5-26.5v-0.1c3.2-0.3,5.7-2.9,5.7-6.2
	C78.1,34.1,75.4,31.3,71.9,31.3z M69.2,43.8L69.2,43.8h-9.1v2C63,44.6,66,43.9,69.2,43.8z M57,47.3v-3.6H42.2v50H57v-0.4
	c-7.9-4.6-13.3-13.2-13.3-23S49.1,51.9,57,47.3z M15.3,31.2h-0.2c-2.8-0.2-5-2.6-5-5.4c0-2.9,2.3-5.3,5.2-5.4l3.1-0.2l-0.2-3.1
	c0-0.1,0-0.2,0-0.3c0-3,2.4-5.4,5.5-5.4c0.5,0,1,0.1,1.4,0.2l2.6,0.7l1.1-2.4c0.8-1.9,3-3.4,5.6-3.4c1.8,0,3.3,0.7,4.4,1.8l2.2,2.1
	L43.1,8c1.1-1.1,2.6-1.8,4.4-1.8c2.6,0,4.7,1.5,5.6,3.4l1.1,2.4l2.6-0.7c0.4-0.1,0.9-0.2,1.4-0.2c3.1,0,5.5,2.5,5.5,5.4
	c0,0.1,0,0.3,0,0.4L63.5,20l2.8,0.5c2.6,0.5,4.5,2.7,4.5,5.4c0,2.8-2.2,5.2-5,5.4h-0.2L15.3,31.2L15.3,31.2z M39.1,43.8H25.8v50
	h13.3V43.8z M22.7,43.8H12l4.1,45.7c0.2,2.4,2.2,4.3,4.7,4.3h1.9L22.7,43.8z M71.9,40.6c1.7,0,3.1-1.4,3.1-3.1s-1.4-3.1-3.1-3.1H9.4
	c-1.7,0-3.1,1.4-3.1,3.1s1.4,3.1,3.1,3.1H71.9z M93.8,70.3c0,12.9-10.5,23.4-23.4,23.4S46.9,83.3,46.9,70.3s10.5-23.4,23.4-23.4
	S93.8,57.4,93.8,70.3z"/>
</svg>
